<svg xmlns="http://www.w3.org/2000/svg" width="22" height="26" fill="none" viewBox="0 0 22 26">
  <path fill="#9DC4F8" d="M0 2a2 2 0 0 1 2-2h12a2 2 0 0 1 2 2v12a2 2 0 0 1-2 2H2a2 2 0 0 1-2-2V2Z" opacity=".6"/>
  <path fill="#3662E3" d="M6 6a2 2 0 0 1 2-2h12a2 2 0 0 1 2 2v12a2 2 0 0 1-2 2H8a2 2 0 0 1-2-2V6Z"/>
  <path fill="#C2DAF9" d="M10.293 14.707a.998.998 0 0 0 1.414 0L13 13.414V25a1 1 0 1 0 2 0V13.414l1.293 1.293a1 1 0 0 0 1.414-1.414l-3-3a1 1 0 0 0-1.414 0l-3 3a1.001 1.001 0 0 0 0 1.414Z"/>
</svg>
